<svg width="29" height="29" viewBox="0 0 29 29" fill="none" xmlns="http://www.w3.org/2000/svg">
<g id="Bell">
<path id="Vector" d="M10.875 21.75C10.875 22.7114 11.2569 23.6334 11.9367 24.3133C12.6166 24.9931 13.5386 25.375 14.5 25.375C15.4614 25.375 16.3834 24.9931 17.0633 24.3133C17.7431 23.6334 18.125 22.7114 18.125 21.75" stroke="#343330" stroke-width="2" stroke-linecap="round" stroke-linejoin="round"/>
<path id="Vector_2" d="M6.34367 11.7812C6.34367 9.61808 7.20299 7.5435 8.73258 6.01391C10.2622 4.48432 12.3367 3.625 14.4999 3.625C16.6631 3.625 18.7377 4.48432 20.2673 6.01391C21.7969 7.5435 22.6562 9.61808 22.6562 11.7812C22.6562 15.839 23.5964 19.0992 24.3441 20.3906C24.4235 20.5282 24.4653 20.6841 24.4655 20.843C24.4656 21.0018 24.424 21.1578 24.3449 21.2955C24.2657 21.4332 24.1517 21.5476 24.0144 21.6274C23.8771 21.7072 23.7212 21.7494 23.5624 21.75H5.43742C5.2788 21.749 5.12321 21.7065 4.98621 21.6265C4.8492 21.5466 4.73557 21.4321 4.65667 21.2945C4.57778 21.1569 4.53638 21.001 4.53662 20.8424C4.53686 20.6838 4.57873 20.528 4.65804 20.3906C5.40457 19.0992 6.34367 15.8379 6.34367 11.7812Z" stroke="#343330" stroke-width="2" stroke-linecap="round" stroke-linejoin="round"/>
</g>
</svg>
