<svg width="50" height="49" viewBox="0 0 50 49" fill="none" xmlns="http://www.w3.org/2000/svg">
<g id="ChatCircleDots">
<path id="Vector" d="M24.6589 4.75269C21.2407 4.75194 17.8806 5.63618 14.9055 7.31933C11.9305 9.00248 9.44184 11.4272 7.68191 14.3575C5.92197 17.2878 4.95067 20.6238 4.86254 24.0408C4.77441 27.4579 5.57246 30.8395 7.179 33.8567L5.01829 40.3388C4.83931 40.8755 4.81333 41.4514 4.94328 42.002C5.07322 42.5526 5.35394 43.0562 5.75398 43.4562C6.15402 43.8563 6.65756 44.137 7.20818 44.2669C7.7588 44.3969 8.33472 44.3709 8.8714 44.1919L15.3535 42.0312C18.0088 43.4435 20.9509 44.2323 23.9565 44.3377C26.9621 44.4432 29.9522 43.8626 32.6999 42.6399C35.4476 41.4172 37.8807 39.5846 39.8144 37.2812C41.7481 34.9778 43.1316 32.2642 43.86 29.3462C44.5884 26.4283 44.6424 23.3828 44.018 20.4409C43.3936 17.4989 42.1072 14.7379 40.2565 12.3674C38.4057 9.99684 36.0392 8.07908 33.3366 6.75968C30.634 5.44029 27.6664 4.75392 24.6589 4.75269ZM16.2826 26.8358C15.8307 26.8358 15.3891 26.7018 15.0134 26.4508C14.6377 26.1997 14.3449 25.843 14.172 25.4255C13.9991 25.0081 13.9539 24.5488 14.042 24.1056C14.1301 23.6625 14.3477 23.2554 14.6672 22.9359C14.9867 22.6165 15.3937 22.3989 15.8369 22.3107C16.28 22.2226 16.7394 22.2678 17.1568 22.4407C17.5742 22.6136 17.931 22.9065 18.182 23.2821C18.433 23.6578 18.567 24.0995 18.567 24.5513C18.567 25.1572 18.3263 25.7382 17.8979 26.1667C17.4695 26.5951 16.8884 26.8358 16.2826 26.8358ZM24.6589 26.8358C24.2071 26.8358 23.7654 26.7018 23.3897 26.4508C23.014 26.1997 22.7212 25.843 22.5483 25.4255C22.3754 25.0081 22.3302 24.5488 22.4183 24.1056C22.5065 23.6625 22.7241 23.2554 23.0435 22.9359C23.363 22.6165 23.7701 22.3989 24.2132 22.3107C24.6564 22.2226 25.1157 22.2678 25.5331 22.4407C25.9505 22.6136 26.3073 22.9065 26.5584 23.2821C26.8094 23.6578 26.9434 24.0995 26.9434 24.5513C26.9434 25.1572 26.7027 25.7382 26.2743 26.1667C25.8458 26.5951 25.2648 26.8358 24.6589 26.8358ZM33.0352 26.8358C32.5834 26.8358 32.1417 26.7018 31.7661 26.4508C31.3904 26.1997 31.0976 25.843 30.9247 25.4255C30.7518 25.0081 30.7065 24.5488 30.7947 24.1056C30.8828 23.6625 31.1004 23.2554 31.4199 22.9359C31.7394 22.6165 32.1464 22.3989 32.5896 22.3107C33.0327 22.2226 33.492 22.2678 33.9095 22.4407C34.3269 22.6136 34.6837 22.9065 34.9347 23.2821C35.1857 23.6578 35.3197 24.0995 35.3197 24.5513C35.3197 25.1572 35.079 25.7382 34.6506 26.1667C34.2222 26.5951 33.6411 26.8358 33.0352 26.8358Z" fill="white"/>
</g>
</svg>
