<svg width="28" height="29" viewBox="0 0 28 29" fill="none" xmlns="http://www.w3.org/2000/svg">
<g id="ChatCircleDots">
<path id="Vector" d="M14 15.8125C14.7249 15.8125 15.3125 15.2249 15.3125 14.5C15.3125 13.7751 14.7249 13.1875 14 13.1875C13.2751 13.1875 12.6875 13.7751 12.6875 14.5C12.6875 15.2249 13.2751 15.8125 14 15.8125Z" fill="#1D1D1D"/>
<path id="Vector_2" d="M9.1875 15.8125C9.91237 15.8125 10.5 15.2249 10.5 14.5C10.5 13.7751 9.91237 13.1875 9.1875 13.1875C8.46263 13.1875 7.875 13.7751 7.875 14.5C7.875 15.2249 8.46263 15.8125 9.1875 15.8125Z" fill="#1D1D1D"/>
<path id="Vector_3" d="M18.8125 15.8125C19.5374 15.8125 20.125 15.2249 20.125 14.5C20.125 13.7751 19.5374 13.1875 18.8125 13.1875C18.0876 13.1875 17.5 13.7751 17.5 14.5C17.5 15.2249 18.0876 15.8125 18.8125 15.8125Z" fill="#1D1D1D"/>
<path id="Vector_4" d="M8.74232 23.5902C10.9479 24.8667 13.5424 25.2975 16.0422 24.8023C18.542 24.3071 20.7764 22.9198 22.3288 20.8988C23.8812 18.8779 24.6456 16.3614 24.4796 13.8185C24.3136 11.2756 23.2285 8.87978 21.4265 7.07783C19.6246 5.27588 17.2288 4.19075 14.6859 4.02475C12.143 3.85876 9.62644 4.62322 7.60553 6.17562C5.58461 7.72802 4.19723 9.96239 3.70206 12.4622C3.20688 14.9619 3.6377 17.5565 4.9142 19.7621L3.54592 23.8472C3.4945 24.0014 3.48704 24.1668 3.52437 24.325C3.5617 24.4832 3.64234 24.6278 3.75726 24.7427C3.87218 24.8577 4.01683 24.9383 4.175 24.9756C4.33318 25.013 4.49862 25.0055 4.65279 24.9541L8.74232 23.5902Z" stroke="#1D1D1D" stroke-width="2" stroke-linecap="round" stroke-linejoin="round"/>
</g>
</svg>
