<svg width="22" height="23" viewBox="0 0 22 23" fill="none" xmlns="http://www.w3.org/2000/svg">
<path d="M21.5 11.0343V21.5343C21.5 21.7664 21.4078 21.989 21.2437 22.1531C21.0796 22.3172 20.8571 22.4093 20.625 22.4093H14.5C14.2679 22.4093 14.0454 22.3172 13.8813 22.1531C13.7172 21.989 13.625 21.7664 13.625 21.5343V15.8468C13.625 15.7308 13.5789 15.6195 13.4969 15.5375C13.4148 15.4554 13.3035 15.4093 13.1875 15.4093H8.8125C8.69647 15.4093 8.58519 15.4554 8.50314 15.5375C8.42109 15.6195 8.375 15.7308 8.375 15.8468V21.5343C8.375 21.7664 8.28281 21.989 8.11872 22.1531C7.95462 22.3172 7.73206 22.4093 7.5 22.4093H1.375C1.14294 22.4093 0.920376 22.3172 0.756282 22.1531C0.592187 21.989 0.5 21.7664 0.5 21.5343V11.0343C0.500215 10.5703 0.684731 10.1253 1.01297 9.79731L9.76297 1.04731C10.0911 0.719373 10.5361 0.535156 11 0.535156C11.4639 0.535156 11.9089 0.719373 12.237 1.04731L20.987 9.79731C21.3153 10.1253 21.4998 10.5703 21.5 11.0343Z" fill="white"/>
</svg>
