<svg width="22" height="23" viewBox="0 0 22 23" fill="none" xmlns="http://www.w3.org/2000/svg">
<path d="M8.375 21.5344V14.5344H13.625V21.5344H20.625V11.0344C20.6251 10.9194 20.6025 10.8056 20.5586 10.6994C20.5147 10.5932 20.4503 10.4966 20.3691 10.4153L11.6191 1.66532C11.5378 1.58396 11.4413 1.51942 11.3351 1.47539C11.2288 1.43136 11.115 1.40869 11 1.40869C10.885 1.40869 10.7712 1.43136 10.6649 1.47539C10.5587 1.51942 10.4622 1.58396 10.3809 1.66532L1.63094 10.4153C1.54971 10.4966 1.4853 10.5932 1.44138 10.6994C1.39747 10.8056 1.37491 10.9194 1.375 11.0344V21.5344H8.375Z" stroke="white" stroke-opacity="0.62" stroke-width="2.5" stroke-linecap="round" stroke-linejoin="round"/>
</svg>
