<svg width="19" height="21" viewBox="0 0 19 21" fill="none" xmlns="http://www.w3.org/2000/svg">
<g id="Image">
<path id="Vector" d="M16.0312 3.28125H2.96875C2.65381 3.28125 2.35176 3.41953 2.12906 3.66567C1.90636 3.91181 1.78125 4.24565 1.78125 4.59375V16.4062C1.78125 16.7543 1.90636 17.0882 2.12906 17.3343C2.35176 17.5805 2.65381 17.7188 2.96875 17.7188H16.0312C16.3462 17.7188 16.6482 17.5805 16.8709 17.3343C17.0936 17.0882 17.2188 16.7543 17.2188 16.4062V4.59375C17.2188 4.24565 17.0936 3.91181 16.8709 3.66567C16.6482 3.41953 16.3462 3.28125 16.0312 3.28125ZM11.5781 7.21875C11.7543 7.21875 11.9265 7.27648 12.0729 7.38465C12.2194 7.49281 12.3335 7.64655 12.401 7.82642C12.4684 8.00629 12.486 8.20422 12.4516 8.39517C12.4173 8.58612 12.3324 8.76152 12.2079 8.89918C12.0833 9.03685 11.9246 9.1306 11.7519 9.16859C11.5791 9.20657 11.4 9.18707 11.2373 9.11257C11.0746 9.03806 10.9355 8.91189 10.8376 8.75001C10.7397 8.58813 10.6875 8.39782 10.6875 8.20312C10.6875 7.94205 10.7813 7.69167 10.9484 7.50707C11.1154 7.32246 11.3419 7.21875 11.5781 7.21875ZM16.0312 16.4062H2.96875V13.1816L6.40805 9.37945C6.46319 9.31844 6.52867 9.27003 6.60075 9.23701C6.67283 9.20398 6.7501 9.18698 6.82812 9.18698C6.90615 9.18698 6.98342 9.20398 7.0555 9.23701C7.12758 9.27003 7.19306 9.31844 7.2482 9.37945L12.2461 14.9018C12.3575 15.0249 12.5086 15.0941 12.6662 15.0941C12.8237 15.0941 12.9748 15.0249 13.0863 14.9018C13.1977 14.7787 13.2603 14.6116 13.2603 14.4375C13.2603 14.2634 13.1977 14.0963 13.0863 13.9732L11.7755 12.5254L12.8398 11.3482C12.9512 11.2252 13.1021 11.1561 13.2596 11.1561C13.417 11.1561 13.5679 11.2252 13.6793 11.3482L16.0312 13.9511V16.4062Z" fill="#343330" fill-opacity="0.67"/>
</g>
</svg>
