<svg width="23" height="23" viewBox="0 0 23 23" fill="none" xmlns="http://www.w3.org/2000/svg">
<g id="vuesax/linear/gallery">
<g id="gallery">
<path id="Vector" d="M8.51849 20.4401H14.0505C18.6606 20.4401 20.5046 18.5961 20.5046 13.9861V8.45404C20.5046 3.84401 18.6606 2 14.0505 2H8.51849C3.90846 2 2.06445 3.84401 2.06445 8.45404V13.9861C2.06445 18.5961 3.90846 20.4401 8.51849 20.4401Z" stroke="#292D32" stroke-width="1.38301" stroke-linecap="round" stroke-linejoin="round"/>
<path id="Vector_2" d="M8.51833 9.37601C9.53675 9.37601 10.3623 8.55042 10.3623 7.532C10.3623 6.51358 9.53675 5.68799 8.51833 5.68799C7.49991 5.68799 6.67432 6.51358 6.67432 7.532C6.67432 8.55042 7.49991 9.37601 8.51833 9.37601Z" stroke="#292D32" stroke-width="1.38301" stroke-linecap="round" stroke-linejoin="round"/>
<path id="Vector_3" d="M2.68213 17.628L7.22762 14.5762C7.956 14.0875 9.00709 14.1428 9.66171 14.7053L9.96597 14.9726C10.6851 15.5904 11.8469 15.5904 12.566 14.9726L16.4016 11.6811C17.1207 11.0633 18.2825 11.0633 19.0016 11.6811L20.5045 12.9719" stroke="#292D32" stroke-width="1.38301" stroke-linecap="round" stroke-linejoin="round"/>
</g>
</g>
</svg>
