<svg width="49" height="48" viewBox="0 0 49 48" fill="none" xmlns="http://www.w3.org/2000/svg">
<path d="M7.70403 35.5859C9.97085 37.002 12.5416 37.364 14.8654 36.6776C15.2677 39.067 16.7205 41.2186 18.9873 42.6347C20.9632 43.8657 23.3466 44.2627 25.6148 43.7388C27.883 43.2149 29.8508 41.8127 31.0865 39.8399C36.1856 31.6775 28.3209 17.6975 27.9845 17.1061C27.8535 16.8766 27.6677 16.6831 27.4436 16.5431C27.2195 16.4031 26.9641 16.3209 26.7004 16.3039C26.0214 16.2609 10.0083 15.3244 4.90924 23.4867C3.67825 25.4625 3.28117 27.8459 3.8051 30.1141C4.32903 32.3823 5.7312 34.3501 7.70403 35.5859ZM18.3581 19.91C20.7626 19.5582 23.1923 19.4074 25.6218 19.4593C26.734 21.6199 27.6641 23.8696 28.4025 26.1848C29.5373 29.8098 30.4523 34.8286 28.3785 38.1482C27.5934 39.405 26.3411 40.2985 24.8971 40.632C23.4532 40.9656 21.9359 40.7118 20.679 39.9267C18.6706 38.672 17.652 36.5611 18.0207 34.4165C18.0747 34.1039 18.0343 33.7824 17.9047 33.4929C17.7752 33.2035 17.5623 32.9591 17.2933 32.7911C17.0244 32.6231 16.7114 32.5389 16.3945 32.5495C16.0775 32.56 15.7708 32.6647 15.5136 32.8502C13.748 34.1222 11.4042 34.1326 9.39574 32.8779C8.13888 32.0927 7.24541 30.8404 6.91187 29.3965C6.57834 27.9526 6.83207 26.4353 7.61724 25.1784C9.69099 21.8589 14.6027 20.48 18.3581 19.91Z" fill="#1D1D1D" stroke="#1D1D1D"/>
<ellipse cx="22.5" cy="29.9094" rx="9.5" ry="11.5" fill="#1D1D1D"/>
<mask id="path-3-inside-1_927_1966" fill="white">
<ellipse cx="12.5564" cy="8.93271" rx="4.05451" ry="6.08176" transform="rotate(4.99338 12.5564 8.93271)"/>
</mask>
<ellipse cx="12.5564" cy="8.93271" rx="4.05451" ry="6.08176" transform="rotate(4.99338 12.5564 8.93271)" fill="#1D1D1D"/>
<path d="M5.63726 8.32817C5.65374 8.13954 5.74314 7.47583 6.45145 6.5912C7.10199 5.7787 9.29594 3.71086 12.9845 4.03314L11.0696 25.9496C16.9889 26.4668 21.3209 23.2192 23.6249 20.3416C25.9867 17.3919 27.2449 13.7778 27.5538 10.2431L5.63726 8.32817ZM12.9845 4.03314C16.673 4.35541 18.4751 6.7724 18.9749 7.6854C19.5191 8.67946 19.492 9.34862 19.4755 9.53725L-2.44098 7.62235C-2.74982 11.1571 -2.13737 14.9346 -0.322925 18.2492C1.44714 21.4827 5.1503 25.4325 11.0696 25.9496L12.9845 4.03314ZM19.4755 9.53725C19.459 9.72587 19.3696 10.3896 18.6613 11.2742C18.0108 12.0867 15.8168 14.1546 12.1283 13.8323L14.0432 -8.08423C8.12392 -8.60141 3.79191 -5.35374 1.48789 -2.47616C-0.873876 0.473559 -2.13214 4.08761 -2.44098 7.62235L19.4755 9.53725ZM12.1283 13.8323C8.43977 13.51 6.63767 11.093 6.13788 10.18C5.59372 9.18595 5.62078 8.51679 5.63726 8.32817L27.5538 10.2431C27.8626 6.70832 27.2502 2.93082 25.4357 -0.383786C23.6656 -3.61733 19.9625 -7.56705 14.0432 -8.08423L12.1283 13.8323Z" fill="#1D1D1D" mask="url(#path-3-inside-1_927_1966)"/>
<mask id="path-5-inside-2_927_1966" fill="white">
<ellipse cx="4.12501" cy="6.18751" rx="4.12501" ry="6.18751" transform="matrix(-0.559289 -0.828973 -0.828973 0.559289 49 27.2596)"/>
</mask>
<ellipse cx="4.12501" cy="6.18751" rx="4.12501" ry="6.18751" transform="matrix(-0.559289 -0.828973 -0.828973 0.559289 49 27.2596)" fill="#1D1D1D"/>
<path d="M45.4088 32.9999C45.5415 32.9103 46.0611 32.5316 46.4824 31.5044C46.8687 30.5627 47.613 27.6624 45.5531 24.6092L27.3157 36.9135C23.9816 31.9718 24.7206 26.587 26.1283 23.1552C27.5711 19.6379 30.1388 16.7633 33.1044 14.7625L45.4088 32.9999ZM45.5531 24.6092C43.4931 21.556 40.5251 21.1603 39.5073 21.1659C38.397 21.172 37.8513 21.512 37.7185 21.6015L50.0229 39.839C47.0573 41.8398 43.4305 43.1445 39.6288 43.1655C35.9196 43.186 30.6498 41.8553 27.3157 36.9135L45.5531 24.6092ZM37.7185 21.6015C37.5858 21.6911 37.0662 22.0699 36.6449 23.0971C36.2586 24.0388 35.5143 26.9391 37.5742 29.9923L55.8116 17.6879C59.1457 22.6297 58.4067 28.0145 56.999 31.4463C55.5562 34.9636 52.9885 37.8381 50.0229 39.839L37.7185 21.6015ZM37.5742 29.9923C39.6342 33.0455 42.6022 33.4412 43.62 33.4356C44.7303 33.4294 45.276 33.0895 45.4088 32.9999L33.1044 14.7625C36.07 12.7617 39.6968 11.4569 43.4985 11.4359C47.2077 11.4154 52.4775 12.7462 55.8116 17.6879L37.5742 29.9923Z" fill="#1D1D1D" mask="url(#path-5-inside-2_927_1966)"/>
<mask id="path-7-inside-3_927_1966" fill="white">
<ellipse cx="26.0943" cy="7.35048" rx="4.05451" ry="6.08176" transform="rotate(20.7729 26.0943 7.35048)"/>
</mask>
<ellipse cx="26.0943" cy="7.35048" rx="4.05451" ry="6.08176" transform="rotate(20.7729 26.0943 7.35048)" fill="#1D1D1D"/>
<path d="M19.6003 4.88715C19.6674 4.71012 19.934 4.09573 20.8561 3.43705C21.7031 2.83208 24.3767 1.43878 27.8386 2.75196L20.036 23.3218C25.5915 25.4292 30.6435 23.4819 33.6432 21.3393C36.7181 19.143 38.9117 16.0073 40.1701 12.6898L19.6003 4.88715ZM27.8386 2.75196C31.3005 4.06514 32.3774 6.8811 32.6101 7.8956C32.8634 9.00018 32.6554 9.63677 32.5883 9.8138L12.0184 2.01117C10.76 5.32872 10.3221 9.13041 11.1668 12.8135C11.9909 16.4066 14.4804 21.2145 20.036 23.3218L27.8386 2.75196ZM32.5883 9.8138C32.5211 9.99083 32.2546 10.6052 31.3324 11.2639C30.4854 11.8689 27.8118 13.2622 24.35 11.949L32.1526 -8.62086C26.597 -10.7282 21.5451 -8.78097 18.5454 -6.63838C15.4705 -4.44207 13.2768 -1.30638 12.0184 2.01117L32.5883 9.8138ZM24.35 11.949C20.8881 10.6358 19.8111 7.81986 19.5785 6.80535C19.3251 5.70077 19.5331 5.06419 19.6003 4.88715L40.1701 12.6898C41.4286 9.37223 41.8664 5.57054 41.0217 1.88743C40.1977 -1.7056 37.7082 -6.5135 32.1526 -8.62086L24.35 11.949Z" fill="#1D1D1D" mask="url(#path-7-inside-3_927_1966)"/>
<mask id="path-9-inside-4_927_1966" fill="white">
<ellipse cx="4.12501" cy="6.18751" rx="4.12501" ry="6.18751" transform="matrix(-0.728803 -0.684723 -0.684723 0.728803 44.1831 12.579)"/>
</mask>
<ellipse cx="4.12501" cy="6.18751" rx="4.12501" ry="6.18751" transform="matrix(-0.728803 -0.684723 -0.684723 0.728803 44.1831 12.579)" fill="#1D1D1D"/>
<path d="M41.9506 18.9714C42.0602 18.8547 42.4831 18.3704 42.6668 17.2755C42.8352 16.2716 42.9195 13.2785 40.2353 10.7566L25.1714 26.7903C20.8267 22.7084 20.3563 17.2936 20.9701 13.6354C21.5991 9.88609 23.4674 6.51476 25.9169 3.90753L41.9506 18.9714ZM40.2353 10.7566C37.551 8.2347 34.569 8.50534 33.5776 8.73597C32.4962 8.98753 32.0392 9.4398 31.9295 9.55651L47.9632 24.6204C45.5137 27.2276 42.2653 29.3024 38.5625 30.1638C34.9496 31.0043 29.516 30.8721 25.1714 26.7903L40.2353 10.7566ZM31.9295 9.55651C31.8199 9.67322 31.397 10.1575 31.2133 11.2525C31.0449 12.2563 30.9606 15.2494 33.6448 17.7713L48.7087 1.73765C53.0534 5.81949 53.5238 11.2343 52.9101 14.8925C52.281 18.6419 50.4127 22.0132 47.9632 24.6204L31.9295 9.55651ZM33.6448 17.7713C36.3291 20.2932 39.3111 20.0226 40.3025 19.792C41.3839 19.5404 41.8409 19.0881 41.9506 18.9714L25.9169 3.90753C28.3664 1.3003 31.6148 -0.774419 35.3177 -1.63583C38.9305 -2.47631 44.3641 -2.34419 48.7087 1.73765L33.6448 17.7713Z" fill="#1D1D1D" mask="url(#path-9-inside-4_927_1966)"/>
<ellipse cx="16.034" cy="26.7371" rx="9.5" ry="11.5" transform="rotate(70.2469 16.034 26.7371)" fill="#1D1D1D"/>
</svg>
