<svg width="32" height="33" viewBox="0 0 32 33" fill="none" xmlns="http://www.w3.org/2000/svg">
<g id="Phone">
<path id="Vector" d="M20.5488 18.6675C20.6872 18.5753 20.8465 18.5192 21.0122 18.5041C21.1779 18.489 21.3447 18.5156 21.4975 18.5812L27.3925 21.2225C27.5912 21.3074 27.757 21.4543 27.8651 21.6414C27.9733 21.8284 28.018 22.0454 27.9925 22.26C27.7983 23.7113 27.0836 25.0427 25.9813 26.0065C24.8791 26.9704 23.4642 27.5011 22 27.5C17.4913 27.5 13.1673 25.7089 9.97919 22.5208C6.79107 19.3327 5 15.0087 5 10.5C4.99888 9.03573 5.5296 7.62091 6.49345 6.51864C7.45731 5.41637 8.78869 4.70167 10.24 4.50747C10.4545 4.48199 10.6716 4.52666 10.8586 4.63482C11.0456 4.74299 11.1926 4.90881 11.2775 5.10747L13.9188 11.0075C13.9836 11.159 14.0101 11.3242 13.9957 11.4885C13.9813 11.6527 13.9265 11.8108 13.8363 11.9487L11.165 15.125C11.0702 15.268 11.0142 15.4331 11.0024 15.6042C10.9906 15.7753 11.0233 15.9466 11.0975 16.1012C12.1313 18.2175 14.3188 20.3787 16.4413 21.4025C16.5967 21.4763 16.7688 21.5084 16.9404 21.4954C17.112 21.4825 17.2773 21.425 17.42 21.3287L20.5488 18.6675Z" stroke="#343330" stroke-width="2" stroke-linecap="round" stroke-linejoin="round"/>
</g>
</svg>
