<svg width="24" height="23" viewBox="0 0 24 23" fill="none" xmlns="http://www.w3.org/2000/svg">
<path d="M23.2569 21.097C21.5911 18.2171 19.0241 16.1521 16.0283 15.1732C17.5101 14.2911 18.6614 12.9469 19.3054 11.3471C19.9493 9.74725 20.0503 7.98028 19.5929 6.31752C19.1354 4.65475 18.1448 3.18812 16.7731 2.14286C15.4014 1.09759 13.7245 0.531494 12 0.531494C10.2754 0.531494 8.59857 1.09759 7.22689 2.14286C5.85522 3.18812 4.86458 4.65475 4.40711 6.31752C3.94965 7.98028 4.05065 9.74725 4.6946 11.3471C5.33856 12.9469 6.48986 14.2911 7.97171 15.1732C4.97593 16.151 2.4089 18.216 0.743116 21.097C0.682029 21.1966 0.64151 21.3074 0.623951 21.4229C0.606391 21.5384 0.612146 21.6563 0.640877 21.7696C0.669607 21.8828 0.720731 21.9892 0.791232 22.0824C0.861733 22.1755 0.950182 22.2537 1.05136 22.3121C1.15254 22.3706 1.2644 22.4081 1.38034 22.4226C1.49628 22.4372 1.61396 22.4283 1.72642 22.3966C1.83888 22.3649 1.94386 22.311 2.03515 22.2381C2.12644 22.1651 2.2022 22.0747 2.25796 21.972C4.31858 18.4107 7.96077 16.2845 12 16.2845C16.0392 16.2845 19.6814 18.4107 21.742 21.972C21.7978 22.0747 21.8735 22.1651 21.9648 22.2381C22.0561 22.311 22.1611 22.3649 22.2736 22.3966C22.386 22.4283 22.5037 22.4372 22.6196 22.4226C22.7356 22.4081 22.8474 22.3706 22.9486 22.3121C23.0498 22.2537 23.1382 22.1755 23.2087 22.0824C23.2792 21.9892 23.3304 21.8828 23.3591 21.7696C23.3878 21.6563 23.3936 21.5384 23.376 21.4229C23.3585 21.3074 23.318 21.1966 23.2569 21.097ZM5.87499 8.40947C5.87499 7.19806 6.23422 6.01385 6.90724 5.0066C7.58026 3.99935 8.53686 3.21429 9.65605 2.75071C10.7753 2.28712 12.0068 2.16583 13.1949 2.40216C14.3831 2.63849 15.4744 3.22184 16.331 4.07844C17.1876 4.93504 17.771 6.02641 18.0073 7.21454C18.2436 8.40268 18.1223 9.63421 17.6588 10.7534C17.1952 11.8726 16.4101 12.8292 15.4029 13.5022C14.3956 14.1752 13.2114 14.5345 12 14.5345C10.3761 14.5327 8.81916 13.8869 7.67088 12.7386C6.5226 11.5903 5.87673 10.0334 5.87499 8.40947Z" fill="white" fill-opacity="0.62"/>
</svg>
