<svg width="24" height="23" viewBox="0 0 24 23" fill="none" xmlns="http://www.w3.org/2000/svg">
<path d="M23.258 21.972C23.1812 22.105 23.0707 22.2155 22.9376 22.2923C22.8046 22.3691 22.6536 22.4095 22.5 22.4095H1.50002C1.3465 22.4093 1.19572 22.3688 1.06283 22.2919C0.929941 22.215 0.81961 22.1046 0.742919 21.9716C0.666228 21.8386 0.625876 21.6878 0.625916 21.5342C0.625955 21.3807 0.666384 21.2299 0.743144 21.097C2.40892 18.2171 4.97596 16.1521 7.97174 15.1732C6.48989 14.2911 5.33859 12.9469 4.69463 11.3471C4.05067 9.74725 3.94967 7.98028 4.40714 6.31752C4.86461 4.65475 5.85524 3.18812 7.22692 2.14286C8.5986 1.09759 10.2755 0.531494 12 0.531494C13.7246 0.531494 15.4014 1.09759 16.7731 2.14286C18.1448 3.18812 19.1354 4.65475 19.5929 6.31752C20.0504 7.98028 19.9494 9.74725 19.3054 11.3471C18.6615 12.9469 17.5102 14.2911 16.0283 15.1732C19.0241 16.1521 21.5911 18.2171 23.2569 21.097C23.3339 21.2299 23.3745 21.3807 23.3747 21.5343C23.3749 21.6879 23.3346 21.8389 23.258 21.972Z" fill="white"/>
</svg>
