<svg width="24" height="25" viewBox="0 0 24 25" fill="none" xmlns="http://www.w3.org/2000/svg">
<g clip-path="url(#clip0_927_1955)">
<path d="M2.67223 24.8786C2.32048 24.7886 2.13748 24.6439 1.19923 23.7109C0.0862291 22.5979 0.016479 22.4876 0.020229 21.9101C0.020229 21.2651 -0.180021 21.4961 3.38698 17.9224C6.98398 14.3164 6.80098 14.4724 7.44898 14.4724C7.75423 14.4724 7.82773 14.4881 8.06998 14.6134L8.34823 14.7544L10.0905 13.0121L9.87148 12.6679C9.44923 12.0041 9.04723 11.0389 8.86723 10.2379C8.35948 7.97587 8.90623 5.60887 10.3485 3.79687C12.8362 0.679867 17.3055 -0.0161327 20.6055 2.21062C22.4182 3.42937 23.5987 5.30737 23.9347 7.52287C24.0045 7.99162 24.0045 9.10087 23.9347 9.59812C23.712 11.2691 22.935 12.8201 21.7305 13.9999C21.1725 14.5781 20.5125 15.0551 19.7857 15.4016C18.8287 15.8824 18.0127 16.1089 16.9065 16.2026C15.3322 16.3354 13.5862 15.8974 12.2505 15.0424L11.9062 14.8234L10.1602 16.5656L10.3012 16.8476C10.4265 17.0899 10.4415 17.1634 10.4415 17.4649C10.4452 18.1129 10.5982 17.9299 7.01623 21.5119C4.25398 24.2689 3.82798 24.6761 3.61723 24.7729C3.34798 24.8981 2.93023 24.9446 2.67223 24.8786ZM17.484 14.8586C19.488 14.4874 21.1987 13.1824 22.0897 11.3509C23.4795 8.44912 22.5427 5.04262 19.8585 3.24187C19.2225 2.81212 18.3315 2.44912 17.4915 2.28112C16.9132 2.16412 15.6832 2.17612 15.0772 2.30512C14.1982 2.48812 13.362 2.85112 12.6285 3.37087C12.1837 3.68287 11.4487 4.41787 11.1405 4.85512C9.42148 7.26187 9.57748 10.5349 11.5192 12.7624C12.522 13.9181 13.9095 14.6764 15.4215 14.8984C15.9292 14.9764 16.9642 14.9576 17.4877 14.8631L17.484 14.8586ZM13.746 22.2334C13.0117 22.0301 12.2812 21.8111 11.5507 21.5854C11.5267 21.5576 12.7575 17.1866 12.8085 17.1364C12.8317 17.1086 17.0505 18.2884 17.2222 18.3701C17.2845 18.3971 17.2185 18.6589 16.6942 20.4709C16.4835 21.2179 16.272 21.9641 16.0612 22.7096C16.0342 22.7959 15.9915 22.8656 15.9645 22.8656C15.9375 22.8619 14.9377 22.5769 13.7452 22.2326L13.746 22.2334ZM16.6597 22.7614C16.6597 22.7066 17.8867 18.4256 17.9055 18.4136C17.9527 18.3784 22.2292 17.1829 22.2457 17.2024C22.266 17.2211 21.0465 21.5381 21.0157 21.5614C20.9955 21.5816 16.8907 22.7531 16.758 22.7801C16.7032 22.7921 16.6597 22.7801 16.6597 22.7614ZM9.55498 20.8474C10.398 19.9954 11.1517 19.2214 11.2267 19.1201C11.3977 18.9011 11.6325 18.3889 11.6985 18.1039C11.7262 17.9869 11.7532 17.7529 11.7577 17.5849L11.7697 17.2759L11.949 17.2249C12.0547 17.1979 12.1447 17.1821 12.1522 17.1896C12.1762 17.2174 10.9455 21.5104 10.9065 21.5494C10.8877 21.5644 10.2307 21.7631 9.44173 21.9866L8.02048 22.3924L9.55573 20.8496L9.55498 20.8474ZM17.844 17.7881C17.82 17.7251 17.8012 17.6629 17.7847 17.5999L17.7375 17.4439L17.8942 17.4169C19.233 17.1896 20.6715 16.5611 21.804 15.7061C21.9637 15.5809 22.0537 15.5344 22.0687 15.5689C22.1197 15.7331 22.3387 16.5176 22.335 16.5296C22.2997 16.5604 17.8537 17.8106 17.8432 17.7919L17.844 17.7881ZM2.76223 16.4876C2.71123 16.4486 1.58248 12.6244 1.49623 12.1984C1.48048 12.1121 1.64098 12.1556 3.67198 12.7331C5.78923 13.3391 5.86273 13.3624 5.89123 13.4749C5.92198 13.5731 5.90248 13.6039 5.76598 13.6976C5.68423 13.7569 4.99573 14.4206 4.24198 15.1744C3.78898 15.6386 3.32398 16.0924 2.85523 16.5416C2.84023 16.5416 2.79748 16.5176 2.76223 16.4869V16.4876ZM3.58198 12.1084C2.39473 11.7686 1.41823 11.4874 1.41373 11.4836C1.39798 11.4716 2.67598 7.05037 2.69848 7.02262C2.72248 7.00387 7.12048 8.23387 7.16773 8.27662C7.17598 8.28487 6.89773 9.29287 6.55048 10.5146C5.97223 12.5344 5.90548 12.7376 5.82748 12.7339C5.77648 12.7339 4.76923 12.4489 3.57748 12.1091L3.58198 12.1084ZM6.53923 12.6476C6.55123 12.6169 6.75448 11.9254 6.98398 11.1124L7.40173 9.63937L7.46098 9.96037C7.55473 10.5146 7.72723 11.1476 7.92598 11.6981C8.03098 11.9951 8.10898 12.2374 8.10523 12.2449C8.09848 12.2531 7.77298 12.3469 7.38748 12.4556C6.99673 12.5644 6.64573 12.6664 6.60223 12.6814C6.54298 12.6971 6.52348 12.6851 6.53923 12.6461V12.6476ZM4.90573 7.02262C3.71848 6.68287 2.73748 6.38662 2.72698 6.36637C2.68423 6.30412 1.47973 2.04637 1.49623 2.03062C1.52023 2.00362 5.80498 3.23362 5.84848 3.27637C5.89573 3.32737 7.12573 7.65562 7.09423 7.65112L4.91023 7.02187L4.90573 7.02262ZM7.05523 5.30737L6.53548 3.50362L6.45748 3.22162L8.14873 2.73787C9.08248 2.47612 9.87148 2.24587 9.91048 2.23012C9.94123 2.21512 9.82423 2.37112 9.64873 2.56612C8.72398 3.58612 8.05198 4.81237 7.69198 6.13987C7.63423 6.32362 7.59073 6.51187 7.55998 6.69862C7.55998 6.99562 7.44223 6.67537 7.05598 5.31187L7.05523 5.30737Z" fill="white" fill-opacity="0.8"/>
</g>
<defs>
<clipPath id="clip0_927_1955">
<rect width="24" height="24" fill="white" transform="translate(0 0.909424)"/>
</clipPath>
</defs>
</svg>
