<svg width="24" height="25" viewBox="0 0 24 25" fill="none" xmlns="http://www.w3.org/2000/svg">
<path d="M2.67229 24.8787C2.32054 24.7887 2.13754 24.644 1.19929 23.711C0.0862901 22.598 0.0165401 22.4877 0.0202901 21.9102C0.0202901 21.2652 -0.17996 21.4962 3.38704 17.9225C6.98404 14.3165 6.80104 14.4725 7.44904 14.4725C7.75429 14.4725 7.82779 14.4882 8.07004 14.6135L8.34829 14.7545L10.0905 13.0122L9.87154 12.668C9.44929 12.0042 9.04729 11.039 8.86729 10.238C8.35954 7.97599 8.90629 5.60899 10.3485 3.79699C12.8363 0.679989 17.3055 -0.0160106 20.6055 2.21074C22.4183 3.42949 23.5988 5.30749 23.9348 7.52299C24.0045 7.99174 24.0045 9.10099 23.9348 9.59824C23.712 11.2692 22.935 12.8202 21.7305 14C21.1725 14.5782 20.5125 15.0552 19.7858 15.4017C18.8288 15.8825 18.0128 16.109 16.9065 16.2027C15.3323 16.3355 13.5863 15.8975 12.2505 15.0425L11.9063 14.8235L10.1603 16.5657L10.3013 16.8477C10.4265 17.09 10.4415 17.1635 10.4415 17.465C10.4453 18.113 10.5983 17.93 7.01629 21.512C4.25404 24.269 3.82804 24.6762 3.61729 24.773C3.34804 24.8982 2.93029 24.9447 2.67229 24.8787ZM17.484 14.8587C19.488 14.4875 21.1988 13.1825 22.0898 11.351C23.4795 8.44924 22.5428 5.04274 19.8585 3.24199C19.2225 2.81224 18.3315 2.44924 17.4915 2.28124C16.9133 2.16424 15.6833 2.17624 15.0773 2.30524C14.1983 2.48824 13.362 2.85124 12.6285 3.37099C12.1838 3.68299 11.4488 4.41799 11.1405 4.85524C9.42154 7.26199 9.57754 10.535 11.5193 12.7625C12.522 13.9182 13.9095 14.6765 15.4215 14.8985C15.9293 14.9765 16.9643 14.9577 17.4878 14.8632L17.484 14.8587ZM13.746 22.2335C13.0118 22.0302 12.2813 21.8112 11.5508 21.5855C11.5268 21.5577 12.7575 17.1867 12.8085 17.1365C12.8318 17.1087 17.0505 18.2885 17.2223 18.3702C17.2845 18.3972 17.2185 18.659 16.6943 20.471C16.4835 21.218 16.272 21.9642 16.0613 22.7097C16.0343 22.796 15.9915 22.8657 15.9645 22.8657C15.9375 22.862 14.9378 22.577 13.7453 22.2327L13.746 22.2335ZM16.6598 22.7615C16.6598 22.7067 17.8868 18.4257 17.9055 18.4137C17.9528 18.3785 22.2293 17.183 22.2458 17.2025C22.266 17.2212 21.0465 21.5382 21.0158 21.5615C20.9955 21.5817 16.8908 22.7532 16.758 22.7802C16.7033 22.7922 16.6598 22.7802 16.6598 22.7615ZM9.55504 20.8475C10.398 19.9955 11.1518 19.2215 11.2268 19.1202C11.3978 18.9012 11.6325 18.389 11.6985 18.104C11.7263 17.987 11.7533 17.753 11.7578 17.585L11.7698 17.276L11.949 17.225C12.0548 17.198 12.1448 17.1822 12.1523 17.1897C12.1763 17.2175 10.9455 21.5105 10.9065 21.5495C10.8878 21.5645 10.2308 21.7632 9.44179 21.9867L8.02054 22.3925L9.55579 20.8497L9.55504 20.8475ZM17.844 17.7882C17.82 17.7252 17.8013 17.663 17.7848 17.6L17.7375 17.444L17.8943 17.417C19.233 17.1897 20.6715 16.5612 21.804 15.7062C21.9638 15.581 22.0538 15.5345 22.0688 15.569C22.1198 15.7332 22.3388 16.5177 22.335 16.5297C22.2998 16.5605 17.8538 17.8107 17.8433 17.792L17.844 17.7882ZM2.76229 16.4877C2.71129 16.4487 1.58254 12.6245 1.49629 12.1985C1.48054 12.1122 1.64104 12.1557 3.67204 12.7332C5.78929 13.3392 5.86279 13.3625 5.89129 13.475C5.92204 13.5732 5.90254 13.604 5.76604 13.6977C5.68429 13.757 4.99579 14.4207 4.24204 15.1745C3.78904 15.6387 3.32404 16.0925 2.85529 16.5417C2.84029 16.5417 2.79754 16.5177 2.76229 16.487V16.4877ZM3.58204 12.1085C2.39479 11.7687 1.41829 11.4875 1.41379 11.4837C1.39804 11.4717 2.67604 7.05049 2.69854 7.02274C2.72254 7.00399 7.12054 8.23399 7.16779 8.27674C7.17604 8.28499 6.89779 9.29299 6.55054 10.5147C5.97229 12.5345 5.90554 12.7377 5.82754 12.734C5.77654 12.734 4.76929 12.449 3.57754 12.1092L3.58204 12.1085ZM6.53929 12.6477C6.55129 12.617 6.75454 11.9255 6.98404 11.1125L7.40179 9.63949L7.46104 9.96049C7.55479 10.5147 7.72729 11.1477 7.92604 11.6982C8.03104 11.9952 8.10904 12.2375 8.10529 12.245C8.09854 12.2532 7.77304 12.347 7.38754 12.4557C6.99679 12.5645 6.64579 12.6665 6.60229 12.6815C6.54304 12.6972 6.52354 12.6852 6.53929 12.6462V12.6477ZM4.90579 7.02274C3.71854 6.68299 2.73754 6.38674 2.72704 6.36649C2.68429 6.30424 1.47979 2.04649 1.49629 2.03074C1.52029 2.00374 5.80504 3.23374 5.84854 3.27649C5.89579 3.32749 7.12579 7.65574 7.09429 7.65124L4.91029 7.02199L4.90579 7.02274ZM7.05529 5.30749L6.53554 3.50374L6.45754 3.22174L8.14879 2.73799C9.08254 2.47624 9.87154 2.24599 9.91054 2.23024C9.94129 2.21524 9.82429 2.37124 9.64879 2.56624C8.72404 3.58624 8.05204 4.81249 7.69204 6.13999C7.63429 6.32374 7.59079 6.51199 7.56004 6.69874C7.56004 6.99574 7.44229 6.67549 7.05604 5.31199L7.05529 5.30749Z" fill="white"/>
</svg>
