<svg width="32" height="33" viewBox="0 0 32 33" fill="none" xmlns="http://www.w3.org/2000/svg">
<path d="M16 21.5C18.7614 21.5 21 19.2614 21 16.5C21 13.7386 18.7614 11.5 16 11.5C13.2386 11.5 11 13.7386 11 16.5C11 19.2614 13.2386 21.5 16 21.5Z" stroke="#343330" stroke-width="2" stroke-linecap="round" stroke-linejoin="round"/>
<path d="M5.17867 22.7612C4.62614 21.8095 4.20283 20.7884 3.91992 19.7249L6.01742 17.0999C5.99367 16.6986 5.99367 16.2962 6.01742 15.8949L3.92117 13.2699C4.2036 12.2063 4.62604 11.1848 5.17742 10.2324L8.51617 9.85742C8.78279 9.55704 9.06704 9.27279 9.36742 9.00617L9.74242 5.66867C10.6935 5.11992 11.7132 4.69999 12.7749 4.41992L15.3999 6.51742C15.8012 6.49367 16.2036 6.49367 16.6049 6.51742L19.2299 4.42117C20.2936 4.7036 21.315 5.12604 22.2674 5.67742L22.6424 9.01617C22.9428 9.28279 23.2271 9.56704 23.4937 9.86742L26.8312 10.2424C27.3837 11.1941 27.807 12.2152 28.0899 13.2787L25.9924 15.9037C26.0162 16.305 26.0162 16.7074 25.9924 17.1087L28.0887 19.7337C27.8082 20.797 27.3879 21.8184 26.8387 22.7712L23.4999 23.1462C23.2333 23.4466 22.9491 23.7308 22.6487 23.9974L22.2737 27.3349C21.322 27.8875 20.3009 28.3108 19.2374 28.5937L16.6124 26.4962C16.2111 26.5199 15.8087 26.5199 15.4074 26.4962L12.7824 28.5924C11.7191 28.312 10.6977 27.8916 9.74492 27.3424L9.36992 24.0037C9.06954 23.7371 8.78529 23.4528 8.51867 23.1524L5.17867 22.7612Z" stroke="#343330" stroke-width="2" stroke-linecap="round" stroke-linejoin="round"/>
</svg>
